Coordinates
version=1
nRows=11
nColumns=36
inDegrees=yes

Units are S.I. units (second, meters, Newtons, ...)
If the header above contains a line with 'inDegrees', this indicates whether rotational values are in degrees (yes) or radians (no).

endheader
time	pelvis_tilt	pelvis_list	pelvis_rotation	pelvis_tx	pelvis_ty	pelvis_tz	hip_flexion_r	hip_adduction_r	hip_rotation_r	knee_angle_r	knee_angle_r_beta	ankle_angle_r	subtalar_angle_r	mtp_angle_r	hip_flexion_l	hip_adduction_l	hip_rotation_l	knee_angle_l	knee_angle_l_beta	ankle_angle_l	subtalar_angle_l	mtp_angle_l	lumbar_extension	lumbar_bending	lumbar_rotation	arm_flex_r	arm_add_r	arm_rot_r	elbow_flex_r	pro_sup_r	arm_flex_l	arm_add_l	arm_rot_l	elbow_flex_l	pro_sup_l
      0.00000000	      5.51071595	     -1.34039743	      1.30906703	      0.77870629	      0.90034744	      0.00491891	     -4.66410726	     -3.87968077	      3.54056143	      5.95253675	      0.10389137	      2.42297790	    -14.47340802	     -5.82336212	     -4.32924103	     -5.44479150	      0.30646802	      7.95423467	      0.13882758	     10.35295496	     -8.30311698	     -5.82336212	    -11.65264250	      1.06667568	     -3.33973568	      6.63235135	     -7.49756098	     25.12567105	     20.85394887	     71.25072653	     -0.29884637	     -8.82173959	     15.05721486	     29.86121092	     69.50646010
      0.01666670	      2.83915135	     -2.37453665	      0.67316662	      0.78182642	      0.89578388	      0.00467024	     -1.62353466	     -3.02050730	      4.83798960	      6.45569149	      0.11267307	      4.99010464	    -12.54661205	     -6.49104695	     -1.61349048	     -6.38704142	     -0.22887728	      7.36808717	      0.12859738	      9.57990577	     -8.91404134	     -6.49104695	     -6.99049806	      2.36742918	     -2.76687986	      5.97671759	     -7.05662966	     23.53309910	     19.00921360	     69.28318287	     -0.64476220	     -7.47132013	     13.99129195	     27.42039561	     67.44320027
      0.03333330	      1.82366801	     -2.23580427	      0.01649598	      0.78246913	      0.89684040	      0.00515052	     -0.65916002	     -3.38270027	      5.23851171	      5.97564046	      0.10429460	      5.26628721	    -12.40960538	     -6.56732214	     -0.81928224	     -6.40624192	     -1.65003097	      6.83224749	      0.11924521	      9.53295202	     -7.48745823	     -6.56732214	     -5.39798910	      2.02601705	     -2.49708859	      5.86382801	     -6.64308394	     22.44079276	     18.65152314	     70.03606188	     -0.77987678	     -7.51587532	     13.68344025	     26.64976720	     67.86755985
      0.05000000	      1.74058985	     -2.17255329	     -0.52300090	      0.78272555	      0.89950340	      0.00510003	     -0.47171247	     -3.55624442	      5.86388990	      5.61374246	      0.09797829	      5.70417966	    -12.00028503	     -6.88701663	     -1.41176769	     -6.37864126	     -2.36055041	      5.63348356	      0.09832284	      9.30895133	     -7.02410055	     -6.88701663	     -5.17529288	      1.89498831	     -1.51737058	      4.97933767	     -6.05692093	     14.37281377	     19.46556733	     78.06828404	     -0.50039676	     -7.28896521	     11.42199762	     26.46660119	     72.76520630
      0.06666670	      1.65816823	     -2.24145594	     -0.95963290	      0.78269775	      0.89645416	      0.00516316	     -0.29932580	     -3.53481970	      6.33928203	      5.45124651	      0.09514220	      5.86593868	    -11.87000954	     -6.94048019	     -1.77777684	     -6.44443959	     -2.75084190	      4.86174530	      0.08485346	      9.23200764	     -6.73241568	     -6.94048019	     -4.93889410	      2.10123313	     -0.99895590	      4.86536178	     -6.18819243	     14.19728393	     19.86688914	     77.10203628	     -0.83025235	     -7.22209474	     10.83058390	     26.74711444	     71.79192634
      0.08333330	      1.49222061	     -2.19092894	     -1.28554221	      0.78279890	      0.90136622	      0.00506374	     -0.12713119	     -3.59544164	      6.68100218	      5.24572429	      0.09155516	      5.65584624	    -11.73848975	     -6.94704508	     -1.96842586	     -6.34425291	     -3.05417511	      4.36097449	      0.07611336	      8.94749046	     -6.29474369	     -6.94704508	     -4.52578252	      2.13702593	     -0.60791693	      4.95588553	     -6.17001400	     14.20985556	     19.77246625	     77.21914909	     -0.86566341	     -7.11997095	     10.51109394	     26.41567971	     71.71463662
      0.10000000	      1.58042488	     -2.15217290	     -1.43897333	      0.78267781	      0.89780311	      0.00556200	     -0.25942719	     -3.59758286	      6.96190879	      5.20083173	      0.09077164	      5.73073201	    -11.86184166	     -6.98939497	     -2.27036144	     -6.24380872	     -3.42865795	      4.19516510	      0.07321944	      9.08808160	     -5.91674140	     -6.98939497	     -4.54628140	      2.19281597	     -0.16354078	      5.01253925	     -6.16909464	     14.20209583	     19.76676842	     76.66162480	     -0.62649520	     -6.95666139	      9.77667622	     26.17679914	     70.93203094
      0.11666670	      1.48279792	     -2.06731565	     -1.58092880	      0.78277594	      0.89240141	      0.00613426	     -0.15720729	     -3.65168039	      7.12794698	      5.30592623	      0.09260588	      5.73333182	    -12.06218859	     -7.01915023	     -2.22684192	     -6.15823986	     -3.86191998	      4.15748734	      0.07256184	      9.28575900	     -5.60158839	     -7.01915023	     -4.23583339	      2.11489107	      0.08407319	      5.15567142	     -6.17625431	     14.75422211	     19.51989379	     76.99208909	     -0.42594821	     -6.77313348	      9.01670902	     25.77238508	     70.44050390
      0.13333330	      1.47698640	     -1.95051762	     -1.62142893	      0.78271725	      0.89493821	      0.00567419	     -0.19462413	     -3.76202604	      7.22287216	      5.34775756	      0.09333598	      5.69537508	    -12.28363797	     -7.12291363	     -2.29178305	     -6.01985554	     -4.16431292	      4.10622226	      0.07166710	      9.18528383	     -5.53602962	     -7.12291363	     -4.15724169	      2.04351421	      0.15685918	      5.36467193	     -6.13423892	     15.25783240	     19.34000728	     75.61541392	     -0.30576260	     -6.63459513	      8.63260798	     25.59873340	     68.90383521
      0.15000000	      1.62606568	     -1.84836607	     -1.72414031	      0.78253072	      0.89258023	      0.00629922	     -0.44540599	     -3.89971299	      7.23156631	      5.27387303	      0.09204645	      5.71056035	    -12.22696950	     -7.14445361	     -2.46506561	     -5.91160012	     -4.43844257	      4.19247988	      0.07317258	      9.03872610	     -5.68333993	     -7.14445361	     -4.33987142	      1.92989778	      0.33881579	      5.55790795	     -6.13368182	     15.52720779	     19.21792406	     75.39248539	     -0.12847453	     -6.61045453	      8.54926064	     25.68850719	     68.53864086
      0.16666670	      1.53991594	     -1.79142820	     -1.75824645	      0.78249538	      0.89221665	      0.00618115	     -0.44948920	     -3.96384324	      7.16884491	      5.17898879	      0.09039041	      5.64705848	    -12.19640987	     -7.16602009	     -2.35748422	     -5.89014165	     -4.65927611	      4.39469314	      0.07670186	      8.83625862	     -5.60478790	     -7.16602009	     -4.14565265	      1.88301377	      0.53536128	      5.58899481	     -6.17185887	     15.79587259	     19.26983843	     75.16912987	     -0.23628854	     -6.60619880	      8.42873220	     25.61103454	     68.14960755
